<svg xmlns="http://www.w3.org/2000/svg" version="1.1" xmlns:xlink="http://www.w3.org/1999/xlink" width="1000" height="1000"><g clip-path="url(#SvgjsClipPath1377)"><rect width="1000" height="1000" fill="#ffffff"></rect><g transform="matrix(33.333333333333336,0,0,33.333333333333336,100,100)"><svg xmlns="http://www.w3.org/2000/svg" version="1.1" xmlns:xlink="http://www.w3.org/1999/xlink" width="24" height="24"><svg xmlns="http://www.w3.org/2000/svg" width="24" height="24" viewBox="0 0 24 24" fill="none" stroke="currentColor" class="lucide lucide-flower-lotus-icon lucide-flower-lotus text-foreground/70 fill-foreground/10" stroke-width="2" stroke-linecap="round" stroke-linejoin="round"><path d="M12 20c0-5.5-4.5-10-10-10 0 5.5 4.5 10 10 10"></path><path d="M9.7 8.3c-1.8-2-3.8-3.1-3.8-3.1s-.8 2.5-.5 5.4"></path><path d="M15 12.9V12c0-4.4-3-8-3-8s-3 3.6-3 8v.9"></path><path d="M18.6 10.6c.3-2.9-.5-5.4-.5-5.4s-2 1-3.8 3.1"></path><path d="M12 20c5.5 0 10-4.5 10-10-5.5 0-10 4.5-10 10"></path></svg></svg></g></g><defs><clipPath id="SvgjsClipPath1377"><rect width="1000" height="1000" x="0" y="0" rx="300" ry="300"></rect></clipPath></defs></svg>